<svg width="92" height="63" viewBox="0 0 92 63" fill="none" xmlns="http://www.w3.org/2000/svg">
<g clip-path="url(#clip0_59_2957)">
<path fill-rule="evenodd" clip-rule="evenodd" d="M46.0154 25.624C48.9716 24.1682 49.5873 20.6457 49.5873 20.6457C50.5008 23.089 49.6695 25.2677 49.6695 25.2677C53.3235 23.9237 54.3603 20.5338 54.3603 20.5338C53.7239 25.2269 51.6918 26.2552 51.6918 26.2552C58.1787 24.9928 58.3737 19.4243 58.3737 19.4243C56.7416 22.224 55.3047 22.509 55.3047 22.509C56.6699 21.1246 57.0394 19.2818 56.6186 17.4289C56.403 16.4518 55.9822 15.5252 55.5614 14.6191C54.9763 13.3671 54.6581 11.4532 55.8488 10.6283C52.79 10.8419 52.8209 14.8532 52.8209 14.8532C51.5688 14.0489 52.0409 11.0558 52.0409 11.0558C52.9031 5.39537 48.7155 5.19191 48.7155 5.19191C48.7155 5.19191 50.0702 6.41359 49.4647 8.80608C48.541 12.4203 46.0466 11.0662 46.755 8.36821C48.52 1.7 42.9054 0 42.9054 0C45.646 3.27804 41.9715 6.47487 41.4479 9.62054C40.8835 13.0515 42.1047 14.7414 42.1047 14.7414C41.5403 14.5888 40.7191 13.3058 40.5958 10.6795C40.5137 8.92834 39.2205 6.85146 37.096 6.98413C37.096 6.98413 39.5183 8.95929 36.6959 13.8151C33.8732 18.6711 36.6959 22.4989 36.6959 22.4989C36.6959 22.4989 35.259 22.224 33.627 19.4142C33.627 19.4142 33.8324 24.983 40.3088 26.2451C40.3088 26.2451 38.2767 25.2168 37.6403 20.5237C37.6403 20.5237 38.6873 23.924 42.3308 25.2575C42.3308 25.2575 41.4995 23.089 42.413 20.6356C42.4337 20.6558 43.0596 24.1682 46.0158 25.624" fill="#FA8507"/>
<path fill-rule="evenodd" clip-rule="evenodd" d="M42.6588 1.72052C42.7923 1.97515 42.8846 2.23959 42.9359 2.53497C42.9566 2.67746 42.9668 2.81994 42.9668 2.97284C42.9668 3.04424 42.9566 3.11532 42.9566 3.19683L42.9461 3.30867C42.9461 3.34943 42.9359 3.38007 42.9257 3.42051C42.8846 3.7159 42.7923 4.00087 42.6795 4.26561C42.618 4.39798 42.5562 4.53035 42.4846 4.65261C42.4435 4.71359 42.4126 4.77487 42.3718 4.83585L42.2692 5.00897C41.9819 5.46707 41.7252 5.93558 41.479 6.424C41.3659 6.66822 41.2532 6.91273 41.1506 7.16706C41.048 7.42169 40.9557 7.67602 40.8837 7.95087C40.8528 7.80839 40.8528 7.6659 40.8528 7.52342V7.41158L40.8633 7.29943C40.8633 7.22834 40.8735 7.15695 40.8837 7.08555C40.9248 6.80059 40.9862 6.52573 41.0684 6.25057C41.1506 5.97572 41.2532 5.71097 41.3764 5.45665L41.4688 5.2633C41.4997 5.20232 41.5306 5.14104 41.5717 5.08006L41.6742 4.89683L41.787 4.71359L41.8998 4.53035C41.9408 4.47949 41.9717 4.41851 42.0023 4.36734C42.074 4.2555 42.1358 4.14335 42.1973 4.03151C42.2587 3.91967 42.31 3.79741 42.3616 3.67515C42.4129 3.55289 42.454 3.43063 42.4951 3.30867C42.5053 3.27803 42.5158 3.24739 42.526 3.21705L42.5569 3.12544C42.567 3.09479 42.567 3.06446 42.5772 3.03382C42.5874 3.00348 42.5874 2.97284 42.5976 2.9422C42.6285 2.80983 42.6387 2.68757 42.6594 2.5552C42.6696 2.42282 42.6798 2.29045 42.6798 2.14797C42.6696 1.99537 42.6594 1.863 42.6594 1.72052" fill="#FA8507"/>
<path fill-rule="evenodd" clip-rule="evenodd" d="M48.7047 6.47485C48.7458 6.52572 48.7869 6.5867 48.8175 6.64798C48.8484 6.70896 48.8793 6.77024 48.8996 6.83122C48.9509 6.95348 48.992 7.08585 49.0124 7.21791C49.0433 7.35028 49.0535 7.48266 49.0637 7.61503V7.81849C49.0637 7.84913 49.0637 7.88988 49.0535 7.92052V7.97139L49.0433 8.02225C49.0331 8.15462 49.0022 8.287 48.9713 8.42948C48.9302 8.56185 48.8891 8.69422 48.8277 8.81648C48.8175 8.82659 48.8175 8.84712 48.8073 8.85724C48.7971 8.86735 48.7869 8.88788 48.7764 8.89799C48.7557 8.92863 48.7455 8.95897 48.7251 8.98961C48.7047 9.02025 48.684 9.05089 48.6636 9.07111C48.6534 9.08123 48.6432 9.10145 48.6327 9.11187L48.6018 9.15262C48.5811 9.18296 48.5607 9.20349 48.54 9.23413C48.5197 9.26477 48.4888 9.28499 48.4681 9.30552C48.4579 9.31563 48.4477 9.32575 48.427 9.33616L48.3859 9.3665C48.3553 9.38703 48.3346 9.40725 48.3037 9.42748C48.6219 9.10176 48.9812 7.20811 48.7041 6.47516" fill="#FA8507"/>
<path fill-rule="evenodd" clip-rule="evenodd" d="M56.6179 14.283C56.6485 14.3237 56.6794 14.3645 56.7103 14.4052L56.7925 14.5272C56.8539 14.6087 56.9052 14.6902 56.9568 14.7717C57.0696 14.9347 57.162 15.1075 57.2543 15.2908C57.3467 15.4639 57.4187 15.6471 57.5009 15.8304C57.5212 15.8711 57.5419 15.922 57.5521 15.9728C57.5725 16.0237 57.583 16.0645 57.6034 16.1153C57.6343 16.2069 57.6649 16.3087 57.6958 16.4003C57.8089 16.787 57.8703 17.1841 57.8805 17.5812C57.8805 17.7847 57.8703 17.9783 57.8394 18.1818C57.8292 18.2835 57.8085 18.3751 57.778 18.4769C57.7678 18.5277 57.7471 18.5685 57.7369 18.6194C57.7165 18.6702 57.706 18.711 57.6856 18.7618C57.6856 18.711 57.6958 18.6601 57.6958 18.6194C57.6958 18.5685 57.706 18.5277 57.706 18.4769V18.1919C57.6958 17.9986 57.6751 17.8049 57.6547 17.6217C57.6034 17.2451 57.5212 16.8682 57.4187 16.5017C57.3674 16.3185 57.3059 16.1352 57.2543 15.952C57.2234 15.8604 57.1928 15.7688 57.162 15.6772C57.1314 15.5855 57.1005 15.4939 57.0696 15.4023C56.9157 15.0156 56.7514 14.6592 56.6179 14.2823" fill="#FA8507"/>
<path fill-rule="evenodd" clip-rule="evenodd" d="M56.3101 11.4633C56.2897 11.6567 56.269 11.8298 56.2588 12.0029C56.2486 12.176 56.2381 12.3492 56.2279 12.522C56.2279 12.6951 56.2279 12.8578 56.2486 13.0309C56.2588 13.2041 56.2792 13.3873 56.2897 13.5705C56.1664 13.4281 56.074 13.2549 56.0126 13.0717C55.9511 12.8885 55.9202 12.6951 55.9304 12.5018C55.9406 12.3084 55.9715 12.1252 56.0228 11.9419C56.0842 11.7789 56.1769 11.6061 56.3101 11.4636" fill="#FA8507"/>
<path fill-rule="evenodd" clip-rule="evenodd" d="M36.1104 12.3691C36.0591 12.5015 35.9976 12.6237 35.9358 12.746C35.9049 12.8069 35.8743 12.8682 35.8536 12.9292L35.7715 13.1124L35.7304 13.2041C35.7202 13.2347 35.6998 13.265 35.6893 13.2957C35.6584 13.357 35.638 13.4179 35.6071 13.4789L35.566 13.5705C35.5555 13.6012 35.5351 13.6318 35.5249 13.6622C35.494 13.7231 35.4736 13.7945 35.453 13.8555C35.258 14.3645 35.0835 14.8734 34.9398 15.3928C34.7962 15.9122 34.6936 16.4413 34.6216 16.9708C34.5496 17.5104 34.5187 18.05 34.5187 18.5997C34.4983 18.5388 34.4777 18.4674 34.4573 18.396C34.4369 18.3246 34.4162 18.2636 34.406 18.1925C34.3754 18.0601 34.3445 17.9177 34.334 17.7752L34.3031 17.5613C34.2929 17.4902 34.2929 17.4188 34.2929 17.3477C34.2929 17.2766 34.2827 17.2052 34.2827 17.1338V16.92C34.2929 16.3601 34.3751 15.8 34.5187 15.2503C34.6624 14.7107 34.878 14.1812 35.1348 13.6824C35.1653 13.6214 35.1962 13.5601 35.2373 13.4991C35.2682 13.4382 35.3093 13.3769 35.3501 13.3159C35.3912 13.2546 35.4221 13.1936 35.4628 13.1327C35.4835 13.102 35.5039 13.0714 35.5243 13.0411L35.5858 12.9595L35.7091 12.7864C35.7501 12.7254 35.7912 12.6746 35.8323 12.6234C35.9247 12.5725 36.0171 12.4705 36.1094 12.3688" fill="#FA8507"/>
<path fill-rule="evenodd" clip-rule="evenodd" d="M36.5622 8.17487C36.6134 8.23584 36.6545 8.29713 36.7058 8.36822C36.7469 8.43961 36.788 8.5107 36.8186 8.58209C36.8906 8.72458 36.9418 8.87748 36.9829 9.03007C37.024 9.18267 37.0549 9.33557 37.0753 9.49828C37.0957 9.66129 37.1062 9.81388 37.1062 9.97659C37.096 10.2922 37.0447 10.6179 36.9418 10.9133C36.8393 11.2188 36.6851 11.4937 36.48 11.7379C36.5211 11.4223 36.5825 11.1272 36.6134 10.8318C36.6443 10.5367 36.6749 10.2518 36.6749 9.95637V9.5185C36.6647 9.37602 36.6647 9.22342 36.6545 9.08063C36.6236 8.78555 36.5931 8.49017 36.5622 8.17456" fill="#FA8507"/>
<path fill-rule="evenodd" clip-rule="evenodd" d="M58.8731 26.2577H88.5992C89.5381 26.2577 90.3885 25.8802 91.0039 25.2698C91.6193 24.6594 91.9999 23.8161 91.9999 22.8846C91.9999 21.9531 91.6193 21.1099 91.0039 20.4995H91.0015C90.3861 19.8894 89.5368 19.5116 88.5995 19.5116C87.6622 19.5116 86.813 19.8894 86.1976 20.4995L86.1951 20.502C85.58 21.1123 85.1991 21.955 85.1991 22.8843C85.1991 23.2309 85.4852 23.5146 85.8346 23.5146C86.184 23.5146 86.47 23.2309 86.47 22.8843C86.47 22.3 86.7079 21.7714 87.0925 21.3893C87.4778 21.0082 88.0107 20.7719 88.5998 20.7719C89.189 20.7719 89.7219 21.0078 90.1071 21.3893L90.1059 21.3906C90.4911 21.773 90.7296 22.3012 90.7296 22.8843C90.7296 23.4674 90.4914 23.996 90.1059 24.3781C89.7203 24.7602 89.188 24.9968 88.5998 24.9968V24.9955H62.8874L63.9288 23.913C64.0919 23.7512 64.3094 23.6433 64.563 23.6433C65.8139 23.6614 68.7865 23.6614 69.5656 23.104C69.5656 23.104 71.0883 22.9242 82.5621 9.20686C82.5982 9.17101 82.5982 9.099 82.5621 9.02699C82.5621 9.02699 82.0366 8.43377 81.9822 8.4877L71.6867 18.2317C71.5597 18.3577 71.3605 18.4116 71.1791 18.3396C71.0525 18.2857 70.9252 18.1959 70.8711 17.9979C70.8168 17.8361 70.8711 17.6744 70.9981 17.5484L80.8948 7.2651C80.9491 7.21117 80.9491 7.13916 80.8948 7.08523L80.5685 6.76166C80.5141 6.70773 80.4415 6.70773 80.3872 6.76166L70.1282 16.6138C70.0556 16.6855 69.965 16.7398 69.8563 16.7395C69.4395 16.7576 69.2038 16.5238 69.2221 16.1104C69.24 16.0203 69.2764 15.9125 69.349 15.8408L79.2818 5.6653C79.3362 5.61137 79.3362 5.53937 79.2818 5.48544L78.9556 5.16186C78.9012 5.10793 78.8289 5.10793 78.7742 5.16186L68.4065 14.9779C68.2977 15.0858 68.0982 15.1397 67.9533 15.1038C67.7537 15.0499 67.6632 14.924 67.6088 14.798C67.5362 14.6182 67.5906 14.4205 67.7176 14.2946L77.5416 4.08297C77.596 4.02904 76.9979 3.50783 76.9979 3.50783C76.9617 3.47167 76.8891 3.47167 76.8168 3.50783C62.969 14.87 62.8055 16.3981 62.8055 16.3981C62.2439 17.1712 62.2439 20.1199 62.2618 21.3602C62.2618 21.6118 62.171 21.8456 61.99 21.9893L58.8135 24.9955L58.4885 25.3032C58.3202 25.4625 58.2692 25.6951 58.3557 25.9096C58.4422 26.1241 58.6417 26.2574 58.8741 26.2574L58.8731 26.2577Z" fill="#1A1A1A"/>
<path fill-rule="evenodd" clip-rule="evenodd" d="M88.5994 51.1855H56.2875C56.0598 51.1855 55.864 51.3133 55.7741 51.5216C55.6842 51.7297 55.7265 51.9583 55.8838 52.1216L65.2021 61.8193C67.921 64.6957 71.6547 60.9923 68.7727 58.2775L62.9027 52.4473H88.5994V52.4461C89.1876 52.4461 89.7199 52.6826 90.1054 53.0647C90.4906 53.4471 90.7291 53.9751 90.7291 54.5585C90.7291 55.1419 90.491 55.6702 90.1054 56.0523L90.1066 56.0535C89.7214 56.4347 89.1885 56.6709 88.5994 56.6709C88.0102 56.6709 87.4773 56.435 87.0921 56.0535C86.7078 55.6714 86.4696 55.1428 86.4696 54.5585C86.4696 54.212 86.1835 53.9282 85.8341 53.9282C85.4847 53.9282 85.1986 54.212 85.1986 54.5585C85.1986 55.4879 85.5796 56.3305 86.1946 56.9409L86.1971 56.9433C86.8125 57.5534 87.6621 57.9312 88.599 57.9312C89.536 57.9312 90.3856 57.5534 91.001 56.9433H91.0035C91.6189 56.333 91.9995 55.4897 91.9995 54.5582C91.9995 53.6267 91.6189 52.7834 91.0035 52.1731C90.3881 51.5627 89.5379 51.1852 88.5987 51.1852L88.5994 51.1855Z" fill="#1A1A1A"/>
<path fill-rule="evenodd" clip-rule="evenodd" d="M3.40078 26.2576H32.7691C33.0014 26.2576 33.2007 26.1244 33.2872 25.9102C33.3737 25.696 33.323 25.4631 33.1546 25.3038L32.83 24.9958L28.8935 21.2643C28.6396 21.0124 28.5673 20.6888 28.6761 20.3653C29.8 17.0572 27.5704 11.5739 23.7458 7.78047C19.722 3.7894 13.7583 2.44087 10.9128 5.26357C8.0672 8.08597 9.46264 14.0369 13.4503 17.9921C17.2385 21.7493 22.6581 23.9249 25.9933 22.918C26.3195 22.8102 26.6458 22.8822 26.8632 23.1337L28.6557 24.9958H3.40078V24.997C2.81288 24.997 2.28059 24.7605 1.89535 24.3784C1.51011 23.996 1.27161 23.4677 1.27161 22.8846C1.27161 22.3015 1.5098 21.7729 1.89535 21.3908L1.89411 21.3896C2.27935 21.0084 2.81226 20.7722 3.40139 20.7722C3.99053 20.7722 4.52343 21.0081 4.90867 21.3896C5.29298 21.7717 5.53117 22.3003 5.53117 22.8846C5.53117 23.2312 5.81724 23.5149 6.16665 23.5149C6.51605 23.5149 6.80212 23.2312 6.80212 22.8846C6.80212 21.9553 6.42121 21.1126 5.80612 20.5022L5.80365 20.4998C5.18826 19.8897 4.33869 19.5119 3.4017 19.5119C2.46471 19.5119 1.61515 19.8897 0.999754 20.4998H0.997283C0.381581 21.1099 0.000976562 21.9534 0.000976562 22.8846C0.000976562 23.8158 0.381581 24.6594 0.996974 25.2698C1.61206 25.8798 2.46224 26.2573 3.40078 26.2576Z" fill="#1A1A1A"/>
<path fill-rule="evenodd" clip-rule="evenodd" d="M35.2723 51.1855H3.40073C2.46188 51.1855 1.61139 51.563 0.995997 52.1734C0.380604 52.7838 0 53.627 0 54.5585C0 55.49 0.380604 56.3333 0.995997 56.9437H0.998469C1.61386 57.5537 2.46312 57.9315 3.40042 57.9315C4.33772 57.9315 5.18697 57.5537 5.80236 56.9437L5.80483 56.9412C6.41992 56.3308 6.80083 55.4882 6.80083 54.5588C6.80083 54.2123 6.51476 53.9285 6.16536 53.9285C5.81596 53.9285 5.52989 54.2123 5.52989 54.5588C5.52989 55.1432 5.29201 55.6717 4.90739 56.0538C4.52215 56.435 3.98924 56.6712 3.40011 56.6712C2.81097 56.6712 2.27807 56.4353 1.89283 56.0538L1.89406 56.0526C1.50882 55.6702 1.27033 55.1419 1.27033 54.5588C1.27033 53.9757 1.50852 53.4471 1.89406 53.065C2.27961 52.6829 2.8119 52.4464 3.40011 52.4464V52.4476H28.6939L22.5076 58.4264C19.6073 61.1229 23.3414 64.8265 26.0782 61.9679L35.6758 52.1216C35.8337 51.9595 35.8751 51.7297 35.7852 51.5216C35.6953 51.3136 35.5003 51.1858 35.272 51.1858L35.2723 51.1855Z" fill="#1A1A1A"/>
<path d="M53.6743 50.6238V52.0285H53.6669L53.2434 50.6238H52.7614V53.1582H53.2177V51.7064H53.2251L53.674 53.1582H54.1303V50.6238H53.674H53.6743ZM51.074 52.2022L51.2165 51.2937H51.2273L51.366 52.2022H51.074ZM51.5303 53.1579H51.9866L51.4611 50.6235H51.0048L50.4793 53.1579H50.91L50.9977 52.5677H51.4392L51.5303 53.1579ZM48.7258 50.9857H49.0215C49.2004 50.9857 49.2479 51.1451 49.2479 51.3479C49.2479 51.7171 49.1676 51.7533 48.872 51.7533H48.7258V50.9857ZM49.7805 53.1579L49.2986 52.0753C49.5176 51.9669 49.682 51.7242 49.682 51.3476C49.682 50.9422 49.4741 50.6235 49.036 50.6235H48.2733V53.1579H48.7258V52.1369H48.872L49.3063 53.1579H49.7808H49.7805ZM46.9761 52.6113C46.9761 52.6873 46.9031 52.8285 46.7715 52.8285C46.6109 52.8285 46.5451 52.6946 46.5451 52.6113V51.1521C46.5451 51.0835 46.6109 50.9459 46.7715 50.9459C46.9031 50.9459 46.9761 51.0835 46.9761 51.1595V52.6113ZM46.7715 50.5911C46.268 50.5911 46.0891 50.895 46.0891 51.1558V52.6183C46.0891 52.8791 46.268 53.1904 46.7715 53.1904C47.2278 53.1904 47.4323 52.8791 47.4323 52.6183V51.1558C47.4323 50.895 47.2278 50.5911 46.7715 50.5911ZM45.4125 50.6235H44.0183V50.982H44.4854V53.1579H44.9417V50.982H45.4125V50.6235ZM43.3124 51.3332V51.1558C43.3124 50.819 43.0387 50.5911 42.6519 50.5911C42.2651 50.5911 41.984 50.812 41.984 51.1558C41.984 51.4996 42.0863 51.5829 42.3272 51.8651L42.7069 52.2524C42.8018 52.3609 42.8564 52.4623 42.8564 52.5966C42.8564 52.7449 42.7653 52.8282 42.6519 52.8282C42.5386 52.8282 42.4477 52.7522 42.4477 52.5966V52.3612H41.9877V52.6257C41.9877 52.9875 42.2834 53.1941 42.6519 53.1941C43.0205 53.1941 43.3273 52.9912 43.3273 52.6257C43.3273 52.3251 43.2142 52.1875 43.0316 51.9813L42.5753 51.4634C42.4694 51.3439 42.4477 51.2609 42.4477 51.1521C42.4477 51.0363 42.5355 50.9529 42.6519 50.9529C42.7616 50.9529 42.8564 51.0507 42.8564 51.2281V51.3332H43.3127H43.3124ZM41.2049 50.9857V50.6235H40.1026V53.1579H41.2562V52.7957H40.5589V51.9702H41.0223V51.6084H40.5589V50.9857H41.2049ZM38.3201 50.9857H38.6157C38.7946 50.9857 38.8419 51.1451 38.8419 51.3479C38.8419 51.7171 38.7615 51.7533 38.4659 51.7533H38.3198V50.9857H38.3201ZM39.3748 53.1579L38.8928 52.0753C39.1119 51.9669 39.2762 51.7242 39.2762 51.3476C39.2762 50.9422 39.0683 50.6235 38.6302 50.6235H37.8672V53.1579H38.3198V52.1369H38.4659L38.9003 53.1579H39.3748Z" fill="#1A1A1A"/>
<path d="M49.9734 57.3846C49.9799 57.3846 49.9972 57.3739 50.025 57.3521L50.1421 57.2645H50.143V57.2636C50.1696 57.2464 50.1826 57.2311 50.1826 57.2179C50.1826 57.213 50.1804 57.209 50.1764 57.2054C50.1449 57.2054 50.0989 57.2378 50.0374 57.3028C49.9938 57.3494 49.9722 57.376 49.9722 57.3837V57.3846H49.9731M50.4671 58.0302C50.3942 58.0302 50.338 57.9977 50.2981 57.9328C50.2836 57.8991 50.2765 57.8669 50.2765 57.836C50.2765 57.8151 50.2796 57.7946 50.2855 57.7741C50.3018 57.7207 50.3284 57.6708 50.3652 57.6236C50.4013 57.5758 50.4458 57.5237 50.4989 57.4667C50.5582 57.4005 50.6197 57.3359 50.6831 57.2722C50.7764 57.1793 50.865 57.0825 50.9487 56.982C50.9799 56.9425 50.9975 56.9179 51.0013 56.9087C51.0047 56.8992 51.0065 56.8931 51.0065 56.8907C51.0065 56.8855 51.004 56.8827 50.9994 56.8827C50.9886 56.8827 50.9685 56.891 50.9395 56.9078C50.8996 56.9299 50.8551 56.9596 50.8051 56.9967C50.8026 56.9985 50.8004 57.0001 50.7986 57.0013C50.7927 57.0053 50.7872 57.0089 50.7825 57.012C50.3822 57.2878 50.0488 57.5498 49.7822 57.7974C49.6787 57.8966 49.5984 57.9588 49.5409 57.984C49.5107 57.9977 49.4856 58.0045 49.4662 58.0045C49.451 58.0045 49.4365 58.0011 49.4229 57.9947C49.3865 57.9732 49.3648 57.9484 49.3577 57.9205C49.3503 57.8917 49.3466 57.8703 49.3466 57.855C49.3466 57.8304 49.3525 57.8065 49.3639 57.7833C49.3886 57.7404 49.4371 57.6769 49.5103 57.5924C49.5273 57.5721 49.544 57.5531 49.5592 57.5354C49.5622 57.5317 49.565 57.528 49.5681 57.5246C49.6988 57.3638 49.8338 57.2115 49.9728 57.0678C50.046 56.989 50.1057 56.9477 50.1517 56.944C50.1915 56.9483 50.2243 56.9627 50.2509 56.9872C50.2774 57.0117 50.2907 57.0381 50.2907 57.0662C50.2907 57.0776 50.2876 57.0923 50.2818 57.1098C50.2703 57.1386 50.2645 57.1572 50.2645 57.1655C50.2645 57.1692 50.2654 57.171 50.2672 57.171C50.2737 57.171 50.2919 57.1591 50.3213 57.1358C50.3361 57.1245 50.3559 57.1098 50.38 57.0923C50.8233 56.7571 51.1069 56.5898 51.2308 56.5898C51.2397 56.5898 51.2481 56.5907 51.2561 56.5925C51.3324 56.6146 51.3717 56.6391 51.3735 56.6658C51.3741 56.6826 51.3748 56.6946 51.3751 56.7016V56.7099C51.3751 56.7583 51.3547 56.8092 51.3139 56.8622C51.211 56.9964 51.063 57.1661 50.8696 57.3708C50.8165 57.4266 50.7621 57.486 50.7062 57.5482C50.582 57.6824 50.5199 57.7649 50.5199 57.7946C50.5199 57.8053 50.527 57.8105 50.5406 57.8105C50.5644 57.8105 50.6222 57.7857 50.7152 57.7361C50.7974 57.6889 50.8783 57.6392 50.9571 57.5865C51.101 57.4915 51.2166 57.4248 51.3037 57.3858C51.3812 57.3509 51.4511 57.334 51.5122 57.334C51.5641 57.334 51.6086 57.346 51.6466 57.3699C51.6988 57.4021 51.735 57.4548 51.7551 57.5286C51.7563 57.5326 51.7572 57.5366 51.7578 57.5403C51.7612 57.5556 51.7643 57.57 51.7668 57.5832C51.7711 57.612 51.7773 57.6334 51.7853 57.6481C51.7934 57.6625 51.8066 57.6699 51.8249 57.6699C51.8694 57.6699 51.9596 57.627 52.0955 57.5409C52.1131 57.5295 52.1366 57.5164 52.1662 57.5017C52.2049 57.483 52.2379 57.4738 52.2654 57.4738C52.2901 57.4738 52.308 57.4842 52.3195 57.505C52.3244 57.5151 52.3266 57.5259 52.3266 57.5366C52.3266 57.5642 52.3099 57.5957 52.2759 57.6313C52.2478 57.6613 52.1814 57.7082 52.0766 57.7728C52.0127 57.8124 51.9617 57.8393 51.9231 57.8547C51.8897 57.8648 51.8601 57.87 51.8329 57.87C51.8057 57.87 51.7838 57.8654 51.7634 57.8565C51.7214 57.8384 51.6858 57.809 51.6577 57.767C51.629 57.7256 51.6027 57.6791 51.5793 57.6264C51.5552 57.5737 51.5351 57.5455 51.5193 57.5418C51.5036 57.5384 51.4925 57.5366 51.486 57.5366C51.46 57.5366 51.4257 57.5461 51.3822 57.5654C51.3225 57.5905 51.2262 57.6423 51.093 57.7211C50.7655 57.9276 50.557 58.0311 50.4674 58.0311L50.4671 58.0302ZM48 57.9996C47.9669 57.9996 47.937 57.9913 47.9098 57.9748C47.8452 57.9264 47.8109 57.8847 47.8057 57.8504C47.8016 57.8163 47.7995 57.7946 47.7995 57.7848C47.7995 57.6889 47.8922 57.5409 48.0775 57.3414C48.1878 57.2244 48.2759 57.1658 48.3414 57.1658C48.3806 57.1683 48.4146 57.1811 48.4442 57.2044C48.4689 57.224 48.4816 57.2409 48.4822 57.2544C48.4828 57.2682 48.4831 57.2755 48.4831 57.2768C48.4831 57.3025 48.4662 57.3285 48.4328 57.3558C48.405 57.3754 48.3775 57.3926 48.3503 57.407C48.2799 57.4422 48.1952 57.5151 48.0967 57.6264C48.0429 57.6858 48.0164 57.7275 48.0164 57.7508C48.0164 57.7621 48.0238 57.7692 48.038 57.7713C48.11 57.7713 48.3349 57.6469 48.7136 57.3981C48.7692 57.3625 48.8254 57.3264 48.8817 57.2896C48.9731 57.2262 49.0349 57.1913 49.0667 57.1842L49.084 57.1833C49.1183 57.1833 49.1474 57.1968 49.1715 57.2244C49.1921 57.2489 49.2023 57.2761 49.2023 57.3068C49.2023 57.3408 49.1872 57.3785 49.1569 57.4205C49.1365 57.4493 49.1134 57.4787 49.0877 57.5093C49.0028 57.6058 48.9604 57.6757 48.9604 57.718C48.9604 57.7364 48.9737 57.7459 49 57.7465C49.0358 57.7465 49.0924 57.7275 49.1708 57.6892C49.2283 57.6616 49.2842 57.6334 49.3398 57.6043C49.4445 57.5501 49.5317 57.5102 49.6009 57.4851C49.637 57.4726 49.6617 57.4658 49.6747 57.4652C49.688 57.4646 49.6954 57.4643 49.6973 57.4643C49.7149 57.4643 49.7235 57.471 49.7235 57.4842C49.7235 57.5099 49.6883 57.5525 49.6179 57.6123C49.5595 57.6619 49.4971 57.7094 49.4303 57.7557C49.3633 57.8023 49.3126 57.835 49.2777 57.855C49.2233 57.8871 49.1693 57.9123 49.1155 57.9303C49.0605 57.9478 49.0139 57.9564 48.9762 57.9564C48.9521 57.9564 48.9283 57.9536 48.9048 57.9484C48.8452 57.9346 48.7998 57.8902 48.7686 57.8148C48.7581 57.7842 48.7532 57.7554 48.7532 57.7281C48.7532 57.7149 48.7538 57.7033 48.755 57.6932C48.7562 57.6846 48.7569 57.6766 48.7569 57.6687C48.7569 57.6258 48.7439 57.6043 48.7186 57.6043C48.6855 57.6043 48.6287 57.6389 48.5471 57.7079C48.5391 57.7152 48.5329 57.7204 48.5279 57.7241C48.5258 57.7253 48.5236 57.7269 48.5218 57.7287C48.2898 57.9095 48.1161 57.9999 48.0006 57.9999L48 57.9996ZM47.6299 56.9474C47.5715 56.9474 47.527 56.9143 47.4964 56.8481C47.4878 56.8312 47.4838 56.8144 47.4838 56.7981C47.4838 56.7819 47.4878 56.7657 47.4964 56.7497C47.5085 56.7375 47.5202 56.7304 47.5319 56.728C47.5437 56.7255 47.5536 56.7249 47.5616 56.7255H47.5641C47.5913 56.7255 47.624 56.7326 47.6626 56.747C47.755 56.7825 47.8016 56.8171 47.8016 56.8508C47.8016 56.8818 47.7661 56.9103 47.6951 56.9357C47.6716 56.9434 47.6503 56.9474 47.6302 56.9474H47.6299ZM47.0744 58.0624C46.9536 58.0624 46.8708 58.006 46.8263 57.8939C46.8112 57.8556 46.8038 57.8194 46.8035 57.7845C46.8035 57.7575 46.8078 57.7315 46.8165 57.7063C46.8338 57.6555 46.8606 57.6077 46.8965 57.5623C46.9255 57.5265 46.9725 57.4744 47.0373 57.4054C47.1452 57.2844 47.232 57.217 47.2975 57.2041C47.3284 57.2072 47.3583 57.2219 47.3877 57.2479C47.4192 57.2768 47.4346 57.3071 47.4346 57.3383C47.4346 57.3564 47.4275 57.3742 47.413 57.391C47.3908 57.4131 47.3559 57.4437 47.3074 57.4827C47.1198 57.638 47.0256 57.7477 47.0256 57.8121L47.0265 57.8246C47.0367 57.8439 47.0577 57.8534 47.0889 57.8534C47.1424 57.8534 47.2162 57.8344 47.3101 57.7967L47.3191 57.7943C47.4325 57.7486 47.5434 57.6981 47.6524 57.642C47.7698 57.5807 47.8888 57.5274 48.0092 57.4814C48.0225 57.4765 48.033 57.4744 48.0408 57.4744C48.059 57.4744 48.0692 57.4888 48.0717 57.5182C48.071 57.5547 48.0537 57.5875 48.0201 57.6166C47.9861 57.646 47.9524 57.6708 47.919 57.6919L47.9064 57.7008C47.7701 57.7863 47.6274 57.8648 47.4782 57.9362C47.3151 58.0198 47.1804 58.0618 47.0744 58.0618V58.0624ZM44.7512 57.3843C44.7577 57.3843 44.775 57.3736 44.8028 57.3518L44.9199 57.2642H44.9208V57.2633C44.9474 57.2461 44.9604 57.2308 44.9604 57.2176C44.9604 57.2127 44.9582 57.2087 44.9542 57.2051C44.9227 57.2051 44.8767 57.2375 44.8152 57.3025C44.7716 57.3491 44.75 57.3757 44.75 57.3834V57.3843H44.7509H44.7512ZM45.2449 58.0299C45.172 58.0299 45.1158 57.9974 45.0759 57.9325C45.0614 57.8988 45.0543 57.8666 45.0543 57.8357C45.0543 57.8148 45.0574 57.7943 45.0633 57.7738C45.0796 57.7204 45.1062 57.6705 45.1427 57.6233C45.1788 57.5755 45.2236 57.5234 45.2764 57.4664C45.3361 57.4002 45.3972 57.3356 45.4606 57.2718C45.5539 57.179 45.6425 57.0822 45.7262 56.9817C45.7574 56.9421 45.7747 56.9176 45.7788 56.9084C45.7822 56.8989 45.784 56.8928 45.784 56.8904C45.784 56.8852 45.7815 56.8824 45.7769 56.8824C45.7661 56.8824 45.746 56.8907 45.717 56.9075C45.6771 56.9296 45.6326 56.9593 45.5826 56.9964C45.5801 56.9982 45.578 56.9998 45.5761 57.001C45.5702 57.005 45.5647 57.0086 45.56 57.0117C45.1597 57.2875 44.8263 57.5495 44.5597 57.797C44.4562 57.8963 44.3759 57.9585 44.3184 57.9836C44.2882 57.9974 44.2631 58.0042 44.2437 58.0042C44.2285 58.0042 44.214 58.0008 44.2004 57.9944C44.164 57.9729 44.1423 57.9481 44.1352 57.9202C44.1278 57.8914 44.1241 57.87 44.1241 57.8547C44.1241 57.8301 44.13 57.8062 44.1414 57.7829C44.1661 57.7401 44.2146 57.6766 44.2878 57.5921C44.3051 57.5718 44.3215 57.5528 44.3367 57.5351C44.3398 57.5314 44.3425 57.5277 44.3456 57.5243C44.4763 57.3635 44.6113 57.2112 44.7503 57.0675C44.8235 56.9887 44.8832 56.9474 44.9292 56.9437C44.969 56.948 45.0021 56.9624 45.0284 56.9869C45.0549 57.0114 45.0682 57.0377 45.0682 57.0659C45.0682 57.0773 45.0651 57.092 45.0593 57.1094C45.0478 57.1383 45.042 57.1569 45.042 57.1652C45.042 57.1689 45.0429 57.1707 45.0447 57.1707C45.0512 57.1707 45.0694 57.1588 45.0988 57.1355C45.1136 57.1242 45.1334 57.1094 45.1575 57.092C45.6008 56.7568 45.8844 56.5895 46.0083 56.5895C46.0173 56.5895 46.0256 56.5904 46.0336 56.5922C46.1099 56.6143 46.1492 56.6388 46.151 56.6655C46.1516 56.6823 46.1523 56.6943 46.1526 56.7013V56.7096C46.1526 56.758 46.1322 56.8089 46.0914 56.8619C45.9885 56.9961 45.8405 57.1658 45.6471 57.3705C45.594 57.4263 45.5396 57.4857 45.4837 57.5479C45.3595 57.6821 45.2974 57.7646 45.2974 57.7943C45.2974 57.805 45.3045 57.8102 45.3181 57.8102C45.3419 57.8102 45.3997 57.7854 45.4927 57.7358C45.5749 57.6886 45.6558 57.6389 45.7346 57.5862C45.8785 57.4912 45.9941 57.4244 46.0812 57.3855C46.1587 57.3506 46.2286 57.3337 46.2897 57.3337C46.3416 57.3337 46.3861 57.3457 46.4241 57.3696C46.4763 57.4018 46.5125 57.4545 46.5326 57.5283C46.5338 57.5323 46.5347 57.5363 46.5353 57.54C46.5387 57.5553 46.5418 57.5697 46.5443 57.5829C46.5486 57.6117 46.5548 57.6331 46.5628 57.6478C46.5709 57.6622 46.5841 57.6696 46.6024 57.6696C46.6469 57.6696 46.7371 57.6267 46.873 57.5406C46.8906 57.5292 46.9141 57.5161 46.9437 57.5014C46.9824 57.4827 47.0154 57.4735 47.0429 57.4735C47.0676 57.4735 47.0855 57.4839 47.097 57.5047C47.1019 57.5148 47.1041 57.5256 47.1041 57.5363C47.1041 57.5639 47.0874 57.5954 47.0534 57.631C47.0256 57.661 46.9589 57.7079 46.8541 57.7725C46.7902 57.8121 46.7392 57.839 46.7006 57.8543C46.6672 57.8645 46.6376 57.8697 46.6104 57.8697C46.5832 57.8697 46.5613 57.8651 46.5409 57.8562C46.4989 57.8381 46.4633 57.8087 46.4352 57.7667C46.4065 57.7253 46.3802 57.6788 46.3568 57.6261C46.3327 57.5734 46.3129 57.5452 46.2968 57.5415C46.2811 57.5381 46.27 57.5363 46.2635 57.5363C46.2375 57.5363 46.2032 57.5458 46.1597 57.5651C46.1 57.5902 46.0037 57.642 45.8705 57.7207C45.543 57.9273 45.3345 58.0308 45.2449 58.0308V58.0299ZM43.4482 57.4156C43.4676 57.4156 43.4985 57.4054 43.5421 57.3852C43.5637 57.3748 43.5795 57.3671 43.589 57.3616C43.6595 57.3233 43.6947 57.3007 43.6947 57.293C43.6947 57.2912 43.6928 57.2902 43.6894 57.2902C43.6796 57.2902 43.6616 57.2948 43.6351 57.3037C43.5189 57.3442 43.451 57.3803 43.4318 57.4122C43.4364 57.4143 43.442 57.4156 43.4479 57.4156H43.4482ZM43.472 58.0146C43.2959 58.0146 43.1726 57.9337 43.1016 57.771C43.0836 57.7232 43.0747 57.6778 43.0747 57.634C43.0747 57.604 43.0784 57.5755 43.0864 57.5473C43.1062 57.4768 43.142 57.4122 43.1936 57.353C43.2455 57.2939 43.3024 57.243 43.3644 57.1998C43.4661 57.1288 43.5643 57.0935 43.6589 57.0935C43.7197 57.0935 43.7747 57.1076 43.8241 57.1364C43.8788 57.1732 43.9076 57.2047 43.91 57.2296C43.9116 57.2547 43.9125 57.2691 43.9125 57.2725C43.9125 57.3163 43.8952 57.3619 43.86 57.4097C43.8164 57.4609 43.7565 57.5072 43.6811 57.5485C43.5863 57.6012 43.5053 57.6273 43.4392 57.6273C43.4102 57.6273 43.3827 57.6239 43.3561 57.6172C43.3336 57.6126 43.3144 57.6101 43.298 57.6101H43.2891C43.2656 57.6156 43.2535 57.6248 43.2532 57.638C43.2526 57.6432 43.2523 57.6481 43.2523 57.6524C43.2517 57.6582 43.2514 57.6622 43.2514 57.6641C43.2514 57.6855 43.2563 57.7082 43.2668 57.7318C43.2789 57.7587 43.2943 57.7796 43.3138 57.794C43.3536 57.8179 43.4006 57.8298 43.4556 57.8298C43.5307 57.8298 43.6212 57.8114 43.7265 57.775C43.8523 57.7324 44.0039 57.6668 44.1813 57.5773C44.1868 57.5743 44.1921 57.5715 44.1976 57.5691C44.218 57.5583 44.2375 57.5492 44.2557 57.5412C44.2659 57.5348 44.2959 57.5204 44.3462 57.4983C44.3991 57.4756 44.4398 57.464 44.4689 57.464C44.4917 57.464 44.5041 57.4738 44.5056 57.4928C44.5038 57.5335 44.4309 57.5991 44.2863 57.6898C44.0697 57.8265 43.8788 57.9221 43.7139 57.9772C43.632 58.0023 43.551 58.0149 43.472 58.0149V58.0146ZM41.6749 57.9585C41.5964 57.9585 41.5461 57.9159 41.5232 57.8314C41.5201 57.8151 41.5186 57.7995 41.5186 57.7845C41.5186 57.7134 41.5677 57.6343 41.665 57.5473C41.7157 57.4974 41.7611 57.4517 41.8003 57.4113C41.9455 57.2611 42.0808 57.1358 42.206 57.035C42.2551 56.9927 42.2971 56.9716 42.3314 56.9716C42.3542 56.9716 42.379 56.9801 42.4055 56.9976C42.4407 57.0313 42.4577 57.0626 42.4577 57.0926C42.4577 57.1033 42.4556 57.1137 42.4516 57.1238C42.4352 57.1628 42.404 57.1992 42.3576 57.2332C42.3264 57.2578 42.2934 57.2813 42.2594 57.3037C42.2038 57.3405 42.1466 57.3843 42.0867 57.4346C42.016 57.4949 41.9801 57.5286 41.9801 57.5357C41.9801 57.5363 41.9804 57.5366 41.9807 57.5366H41.982C41.9928 57.5366 42.0416 57.5078 42.1284 57.4508C42.2891 57.3408 42.4102 57.2608 42.4914 57.2106C42.687 57.0877 42.8294 57.0261 42.9184 57.0261C42.9783 57.0261 43.0228 57.0442 43.053 57.081C43.0954 57.1318 43.1182 57.1998 43.1219 57.2856C43.1219 57.3132 43.1164 57.3374 43.1056 57.3586C43.0972 57.3757 43.0815 57.3846 43.0586 57.3846C43.0487 57.3846 43.0367 57.3825 43.0222 57.3782C42.9981 57.3681 42.9804 57.3579 42.9696 57.3478C42.9585 57.3374 42.9496 57.3267 42.9431 57.3154C42.9357 57.304 42.9255 57.2912 42.9122 57.2768C42.8983 57.263 42.8816 57.2562 42.8624 57.2562C42.8399 57.2562 42.8139 57.2636 42.7837 57.2786C42.6873 57.327 42.5192 57.4373 42.2789 57.6089C42.2504 57.6291 42.2195 57.6527 42.1853 57.6788C42.1127 57.7336 42.0367 57.7875 41.9566 57.8409C41.8769 57.8942 41.8028 57.9306 41.7355 57.9499C41.7144 57.9555 41.6944 57.9582 41.6752 57.9582L41.6749 57.9585ZM38.568 58.6213C38.5491 58.6231 38.53 58.6189 38.5108 58.6087C38.4784 58.5913 38.4537 58.568 38.4379 58.538C38.433 58.5266 38.4299 58.5153 38.4286 58.5039C38.4246 58.4632 38.4493 58.4157 38.5028 58.3615C38.5559 58.3039 38.6202 58.2245 38.6971 58.1225C38.7314 58.0799 38.7583 58.0477 38.778 58.0256C38.8577 57.9352 38.9155 57.866 38.9526 57.8191C38.9801 57.7829 38.9934 57.7584 38.9921 57.7453C38.9912 57.7364 38.9872 57.7278 38.9804 57.7192C38.9714 57.7091 38.9609 57.6993 38.9489 57.6898C38.9174 57.6659 38.901 57.6438 38.8991 57.6236C38.8979 57.6169 38.8982 57.6101 38.9001 57.6031C38.9041 57.585 38.9127 57.5755 38.9254 57.5743C38.9399 57.5724 38.9572 57.577 38.9776 57.5878C38.9974 57.5991 39.0128 57.6092 39.0236 57.6181C39.0496 57.6319 39.0709 57.638 39.0876 57.6362C39.1105 57.6337 39.1401 57.6074 39.1772 57.5574C39.2856 57.4266 39.3947 57.2964 39.505 57.1661C39.7407 56.8891 39.9267 56.6621 40.062 56.4853C40.1426 56.3814 40.2198 56.2726 40.293 56.1593C40.3227 56.109 40.3456 56.0814 40.3626 56.0759C40.3789 56.0707 40.3891 56.0676 40.3931 56.067C40.4209 56.064 40.454 56.0802 40.4917 56.1154C40.5152 56.139 40.5285 56.1642 40.5315 56.1905C40.5328 56.1979 40.5328 56.2052 40.5315 56.2132C40.5278 56.2478 40.5152 56.2827 40.4935 56.3177C40.4716 56.3532 40.4491 56.3848 40.4256 56.4136L40.404 56.4433C40.2532 56.6388 40.0978 56.8297 39.9375 57.0151C39.7771 57.2008 39.6137 57.3849 39.4478 57.5682C39.4364 57.5807 39.4228 57.5976 39.407 57.6181C39.3919 57.6399 39.3839 57.6552 39.3826 57.665C39.382 57.6696 39.3817 57.6736 39.3817 57.6766C39.3811 57.6797 39.3808 57.6815 39.3808 57.6828C39.3826 57.6978 39.3975 57.7063 39.4253 57.7088C39.4741 57.71 39.5278 57.7076 39.5868 57.7017C39.7373 57.6855 39.9257 57.6454 40.1522 57.5807C40.2816 57.543 40.3913 57.5081 40.4809 57.4753C40.6857 57.4008 40.9001 57.3046 41.1244 57.1876C41.3484 57.0705 41.5631 56.9397 41.7682 56.7945C41.9733 56.6492 42.1497 56.4966 42.2965 56.337C42.3715 56.257 42.4324 56.1737 42.4781 56.0872C42.5337 55.9834 42.5566 55.8893 42.5476 55.805C42.5427 55.7578 42.526 55.7137 42.4976 55.6724C42.4596 55.6215 42.4105 55.581 42.3496 55.5507C42.2887 55.5207 42.2245 55.498 42.1565 55.4824C42.0876 55.4668 42.0231 55.4551 41.9622 55.4474C41.8569 55.4343 41.7682 55.43 41.6968 55.4349C41.6255 55.4395 41.5692 55.4444 41.5269 55.4493C41.3385 55.4689 41.1568 55.5029 40.9817 55.5513C40.7886 55.6031 40.5794 55.6727 40.3548 55.76C39.9721 55.9089 39.6724 56.0811 39.4565 56.2778C39.4215 56.3106 39.3993 56.3394 39.3891 56.3646C39.3768 56.3943 39.3684 56.4347 39.3638 56.4862C39.3557 56.5331 39.3465 56.5573 39.3357 56.5588C39.3307 56.5597 39.3267 56.5607 39.3239 56.5613C39.3202 56.5619 39.3178 56.5625 39.3165 56.5631C39.2961 56.5649 39.2683 56.5542 39.2328 56.5309C39.1772 56.4957 39.1478 56.4666 39.1444 56.4442C39.1413 56.4286 39.1392 56.4173 39.138 56.4099C39.1373 56.4068 39.137 56.405 39.137 56.4038C39.1274 56.3137 39.2019 56.204 39.3601 56.075C39.5803 55.8973 39.8247 55.7468 40.0926 55.6236C40.361 55.5002 40.6319 55.4039 40.9054 55.3353C41.0496 55.2982 41.1964 55.2722 41.345 55.2565C41.4237 55.248 41.5031 55.2428 41.5825 55.2403C41.8136 55.2339 42.0382 55.2657 42.2569 55.3362C42.3323 55.362 42.4031 55.3981 42.4692 55.4456C42.5356 55.4931 42.5915 55.5495 42.6382 55.6148L42.6443 55.6227C42.6891 55.6917 42.7138 55.745 42.7191 55.7839C42.7203 55.7943 42.7216 55.8035 42.7228 55.8118C42.7253 55.8335 42.7265 55.8455 42.7265 55.8476C42.7342 55.9187 42.7293 55.9919 42.7111 56.067C42.6419 56.2932 42.4713 56.5214 42.1992 56.7522C41.8661 57.0341 41.4905 57.2725 41.0719 57.4667C40.7907 57.5982 40.505 57.7042 40.2143 57.7848C40.0885 57.8185 39.985 57.8412 39.9038 57.8531C39.8939 57.8543 39.8849 57.8556 39.8766 57.8568C39.809 57.8669 39.7617 57.8733 39.7339 57.8764C39.5705 57.8939 39.4447 57.896 39.3564 57.8828C39.3171 57.8755 39.2779 57.874 39.238 57.8782L39.2093 57.8828C39.1481 57.9264 39.0014 58.1044 38.7685 58.4175C38.6903 58.5223 38.6375 58.5858 38.6103 58.6072C38.5958 58.6149 38.5813 58.6198 38.567 58.6216L38.568 58.6213Z" fill="#FA8507"/>
<path d="M79.5107 56.5291C79.5107 56.5812 79.4508 56.6704 79.3609 56.6704C79.271 56.6704 79.2086 56.5812 79.2086 56.5291V55.5305C79.2086 55.4784 79.2685 55.3868 79.3609 55.3868C79.4533 55.3868 79.5107 55.4784 79.5107 55.5305V56.5291ZM79.3609 55.1392C79.0461 55.1392 78.8938 55.3522 78.8938 55.5284V56.5319C78.8938 56.7078 79.0461 56.9186 79.3609 56.9186C79.6757 56.9186 79.8255 56.7081 79.8255 56.5319V55.5284C79.8255 55.3525 79.6757 55.1392 79.3609 55.1392ZM77.3365 56.2344C77.4814 56.0833 77.554 56.0113 77.554 56.0113C77.7189 55.8179 77.7912 55.7634 77.7912 55.5256C77.7912 55.2878 77.5991 55.1389 77.3315 55.1389C77.064 55.1389 76.8792 55.2952 76.8792 55.5256V55.647H77.1916V55.5753C77.1916 55.4539 77.2565 55.3868 77.3315 55.3868C77.4066 55.3868 77.4739 55.4438 77.4739 55.5232C77.4739 55.6025 77.4539 55.6522 77.3816 55.7361L77.0692 56.0906C76.9444 56.2316 76.832 56.4522 76.832 56.6777C76.832 56.861 76.8644 56.8959 76.8644 56.8959H77.7538V56.648H77.1817C77.1817 56.648 77.1792 56.6305 77.1792 56.6033C77.1792 56.5291 77.1968 56.3778 77.3365 56.234V56.2344ZM75.4273 56.5291C75.4273 56.5812 75.3673 56.6704 75.2774 56.6704C75.1875 56.6704 75.1251 56.5812 75.1251 56.5291V55.5305C75.1251 55.4784 75.1851 55.3868 75.2774 55.3868C75.3698 55.3868 75.4273 55.4784 75.4273 55.5305V56.5291ZM75.2774 55.1392C74.9626 55.1392 74.8103 55.3522 74.8103 55.5284V56.5319C74.8103 56.7078 74.9626 56.9186 75.2774 56.9186C75.5922 56.9186 75.7421 56.7081 75.7421 56.5319V55.5284C75.7421 55.3525 75.5922 55.1392 75.2774 55.1392ZM73.253 56.2344C73.3979 56.0833 73.4705 56.0113 73.4705 56.0113C73.6355 55.8179 73.7077 55.7634 73.7077 55.5256C73.7077 55.2878 73.5156 55.1389 73.2481 55.1389C72.9805 55.1389 72.7958 55.2952 72.7958 55.5256V55.647H73.1081V55.5753C73.1081 55.4539 73.173 55.3868 73.2481 55.3868C73.3231 55.3868 73.3905 55.4438 73.3905 55.5232C73.3905 55.6025 73.3704 55.6522 73.2981 55.7361L72.9858 56.0906C72.861 56.2316 72.7485 56.4522 72.7485 56.6777C72.7485 56.861 72.7809 56.8959 72.7809 56.8959H73.6704V56.648H73.0982C73.0982 56.648 73.0958 56.6305 73.0958 56.6033C73.0958 56.5291 73.1134 56.3778 73.253 56.234V56.2344ZM18.328 56.648V55.4092H18.5152C18.64 55.4092 18.6727 55.5183 18.6727 55.6571V56.4004C18.6727 56.5392 18.6403 56.6483 18.5152 56.6483H18.328V56.648ZM18.9449 55.4487C18.905 55.2826 18.7577 55.1613 18.58 55.1613H18.0156V56.8956H18.58C18.8497 56.8956 18.9699 56.6652 18.9699 56.4001V55.6568C18.9699 55.5851 18.96 55.5155 18.9449 55.4487ZM16.9257 55.1613H15.9714V55.4067H16.2912V56.8959H16.6035V55.4067H16.9257V55.1613ZM14.9291 55.647V55.5256C14.9291 55.2952 14.7416 55.1389 14.4768 55.1389C14.212 55.1389 14.0196 55.29 14.0196 55.5256C14.0196 55.7612 14.0894 55.8179 14.2544 56.0113L14.5142 56.2763C14.5791 56.3508 14.6164 56.42 14.6164 56.5117C14.6164 56.6131 14.554 56.6704 14.4765 56.6704C14.399 56.6704 14.3365 56.6183 14.3365 56.5117V56.3508H14.0217V56.5316C14.0217 56.7795 14.2241 56.9207 14.4765 56.9207C14.7289 56.9207 14.9387 56.7819 14.9387 56.5316C14.9387 56.326 14.8611 56.2316 14.7363 56.0906L14.424 55.7361C14.3517 55.6543 14.3365 55.5973 14.3365 55.5232C14.3365 55.4438 14.3965 55.3868 14.4765 55.3868C14.5513 55.3868 14.6164 55.4536 14.6164 55.5753V55.647H14.9288H14.9291ZM12.9275 55.4092V55.1613H12.1731V56.8956H12.9624V56.6477H12.4854V56.0827H12.8027V55.8348H12.4854V55.4086H12.9275V55.4092Z" fill="#1A1A1A"/>
<path d="M8.01218 36.6271H4.22344V28.8837H0.635498V48.812H4.22344V39.4458H8.01218V48.812H11.6001V28.8837H8.01218V36.6271Z" fill="#FA8507"/>
<path d="M19.5793 28.6272C15.6182 28.6272 14.2119 31.0185 14.2119 33.0684V44.57C14.2119 46.6199 15.6185 49.0682 19.5793 49.0682C23.1672 49.0682 24.7746 46.6199 24.7746 44.57V33.0684C24.7746 31.0185 23.1672 28.6272 19.5793 28.6272ZM21.1867 44.513C21.1867 45.1108 20.6127 46.2213 19.5793 46.2213C18.3164 46.2213 17.7999 45.1678 17.7999 44.513V33.0399C17.7999 32.4991 18.3164 31.4171 19.5793 31.4171C20.6127 31.4171 21.1867 32.4991 21.1867 33.0969V44.513Z" fill="#FA8507"/>
<path d="M26.095 28.8837V31.7021H29.7691V48.812H33.357V31.7021H37.0596V28.8837H26.095Z" fill="#FA8507"/>
<path d="M44.4646 48.812H48.0525V39.474H51.6689V36.6271H48.0525V31.7306H53.1042V28.8837H44.4646V48.812Z" fill="#1A1A1A"/>
<path d="M59.7058 28.6272C55.7446 28.6272 54.3384 31.0185 54.3384 33.0684V44.57C54.3384 46.6199 55.7449 49.0682 59.7058 49.0682C63.2937 49.0682 64.9011 46.6199 64.9011 44.57V33.0684C64.9011 31.0185 63.2937 28.6272 59.7058 28.6272ZM61.3131 44.513C61.3131 45.1108 60.7391 46.2213 59.7058 46.2213C58.4429 46.2213 57.9263 45.1678 57.9263 44.513V33.0399C57.9263 32.4991 58.4429 31.4171 59.7058 31.4171C60.7391 31.4171 61.3131 32.4991 61.3131 33.0969V44.513Z" fill="#1A1A1A"/>
<path d="M72.7368 28.6272C68.7756 28.6272 67.3694 31.0185 67.3694 33.0684V44.57C67.3694 46.6199 68.776 49.0682 72.7368 49.0682C76.3247 49.0682 77.9321 46.6199 77.9321 44.57V33.0684C77.9321 31.0185 76.3247 28.6272 72.7368 28.6272ZM74.3441 44.513C74.3441 45.1108 73.7702 46.2213 72.7368 46.2213C71.4739 46.2213 70.9573 45.1678 70.9573 44.513V33.0399C70.9573 32.4991 71.4739 31.4171 72.7368 31.4171C73.7702 31.4171 74.3441 32.4991 74.3441 33.0969V44.513Z" fill="#1A1A1A"/>
<path d="M91.2216 32.1859C90.7622 30.2785 89.0689 28.8834 87.0309 28.8834H80.5439V48.812H87.0309C90.1307 48.812 91.5086 46.1643 91.5086 43.1182V34.5775C91.5086 33.752 91.3936 32.9547 91.2216 32.1862V32.1859ZM88.093 43.1182C88.093 44.7125 87.7198 45.9651 86.2848 45.9651H84.1322V31.7306H86.2848C87.7201 31.7306 88.093 32.9832 88.093 34.5775V43.1182Z" fill="#1A1A1A"/>
</g>
<defs>
<clipPath id="clip0_59_2957">
<rect width="92" height="63" fill="white"/>
</clipPath>
</defs>
</svg>
